<svg xmlns="http://www.w3.org/2000/svg" width="960" height="540" viewBox="0 0 960 540"><rect width="960" height="540" fill="#435D74"/><rect x="52" y="38" width="858" height="58" rx="0" fill="none" stroke="none" stroke-width="1"/><path d="M52 500 L908 500" stroke="#869FB2" stroke-width="0.65" fill="none"/><rect x="52" y="511" width="290" height="18" rx="0" fill="none" stroke="none" stroke-width="1"/><rect x="845" y="511" width="63" height="18" rx="0" fill="none" stroke="none" stroke-width="1"/><rect x="58.125" y="135.0" width="29.75" height="28.0" rx="0" fill="none" stroke="#5FD0DB" stroke-width="1.75"/><path d="M58.125 143.75 L87.875 143.75" fill="none" stroke="#5FD0DB" stroke-width="1.75" stroke-linejoin="round" stroke-linecap="round"/><path d="M68.625 135.0 L68.625 143.75 L77.375 143.75 L77.375 135.0" fill="none" stroke="#5FD0DB" stroke-width="1.75" stroke-linejoin="round" stroke-linecap="round"/><path d="M64.25 156.875 L72.125 156.875" fill="none" stroke="#5FD0DB" stroke-width="1.75" stroke-linejoin="round" stroke-linecap="round"/><rect x="115" y="125" width="337" height="50" rx="0" fill="none" stroke="none" stroke-width="1"/><rect x="115" y="177" width="337" height="36" rx="0" fill="none" stroke="none" stroke-width="1"/><rect x="115" y="219" width="337" height="40" rx="0" fill="none" stroke="none" stroke-width="1"/><ellipse cx="526.0" cy="149.0" rx="16.625" ry="16.625" fill="none" stroke="#5FD0DB" stroke-width="1.75"/><ellipse cx="526.0" cy="149.0" rx="9.625" ry="9.625" fill="none" stroke="#5FD0DB" stroke-width="1.75"/><ellipse cx="526.0" cy="149.0" rx="2.625" ry="2.625" fill="none" stroke="#5FD0DB" stroke-width="1.75"/><path d="M526.0 149.0 L541.75 133.25" fill="none" stroke="#5FD0DB" stroke-width="1.75" stroke-linejoin="round" stroke-linecap="round"/><path d="M535.625 133.25 L541.75 133.25 L541.75 139.375" fill="none" stroke="#5FD0DB" stroke-width="1.75" stroke-linejoin="round" stroke-linecap="round"/><rect x="568" y="125" width="337" height="50" rx="0" fill="none" stroke="none" stroke-width="1"/><rect x="568" y="177" width="337" height="36" rx="0" fill="none" stroke="none" stroke-width="1"/><rect x="568" y="219" width="337" height="40" rx="0" fill="none" stroke="none" stroke-width="1"/><path d="M73.0 294.375 L87.0 299.625 L85.25 315.375 L80.0 323.25 L73.0 328.5 L66.0 323.25 L60.75 315.375 L59.0 299.625 Z" fill="none" stroke="#5FD0DB" stroke-width="1.75" stroke-linejoin="round" stroke-linecap="round"/><path d="M66.0 311.0 L71.25 316.25 L80.875 305.75" fill="none" stroke="#5FD0DB" stroke-width="1.75" stroke-linejoin="round" stroke-linecap="round"/><rect x="115" y="287" width="337" height="50" rx="0" fill="none" stroke="none" stroke-width="1"/><rect x="115" y="339" width="337" height="36" rx="0" fill="none" stroke="none" stroke-width="1"/><rect x="115" y="381" width="337" height="40" rx="0" fill="none" stroke="none" stroke-width="1"/><rect x="509.375" y="295.25" width="33.25" height="25.375" rx="0" fill="none" stroke="#5FD0DB" stroke-width="1.75"/><path d="M526.0 320.625 L526.0 326.75 L517.25 326.75 L534.75 326.75" fill="none" stroke="#5FD0DB" stroke-width="1.75" stroke-linejoin="round" stroke-linecap="round"/><path d="M515.5 313.625 L522.5 308.375 L528.625 311.0 L537.375 301.375" fill="none" stroke="#5FD0DB" stroke-width="1.75" stroke-linejoin="round" stroke-linecap="round"/><rect x="568" y="287" width="337" height="50" rx="0" fill="none" stroke="none" stroke-width="1"/><rect x="568" y="339" width="337" height="36" rx="0" fill="none" stroke="none" stroke-width="1"/><rect x="568" y="381" width="337" height="40" rx="0" fill="none" stroke="none" stroke-width="1"/><path d="M480 130 L480 421" stroke="#869FB2" stroke-width="1" fill="none"/><path d="M52 272 L908 272" stroke="#869FB2" stroke-width="1" fill="none"/><rect x="52" y="443" width="856" height="42" rx="4.2" fill="#294559" stroke="none" stroke-width="1"/><rect x="70" y="451" width="820" height="31" rx="0" fill="none" stroke="none" stroke-width="1"/></svg>