<svg xmlns="http://www.w3.org/2000/svg" width="960" height="540" viewBox="0 0 960 540"><rect width="100%" height="100%" fill="white"/><g transform="translate(48.0 221.94404199475065) rotate(180.0 242.17322834645668 39.60629921259842) "><rect width="484.34645669291336" height="79.21259842519684" rx="0" fill="none" stroke="none" stroke-width="1.0" stroke-linejoin="round"/></g><g transform="translate(427.67979002624674 132.18635170603673)  "><rect width="484.34645669291336" height="79.21259842519684" rx="0" fill="none" stroke="none" stroke-width="1.0" stroke-linejoin="round"/></g><g transform="translate(48.0 43.199475065616795)  "><rect width="864.0" height="50.55118110236221" rx="0" fill="none" stroke="none" stroke-width="0" stroke-linejoin="round"/><text x="432.0" y="52.26509186351706" font-family="Fira Sans Extra Condensed" font-size="42.666666666666664" text-anchor="middle" fill="#000000">Big Data Infographics</text></g><g transform="translate(48.0 401.45931758530185) rotate(180.0 242.17322834645668 39.60629921259842) "><rect width="484.34645669291336" height="79.21259842519684" rx="0" fill="none" stroke="none" stroke-width="1.0" stroke-linejoin="round"/></g><g transform="translate(427.67979002624674 311.7016272965879)  "><rect width="484.34645669291336" height="79.21259842519684" rx="0" fill="none" stroke="none" stroke-width="1.0" stroke-linejoin="round"/></g><g transform="translate(368.54981627296587 110.44062992125984)  "><g transform="scale(0.004773492028869538 0.004773488882368223)"><path d="M12746 4905 C13701 4905 14672 5083 15613 5460 C19580 7047 21508 11545 19923 15511 C18714 18534 15811 20374 12742 20374 C11786 20374 10814 20196 9873 19819 C5908 18234 3978 13734 5563 9769 C6772 6745 9676 4905 12746 4905 Z M15551 1 C15240 1 14946 187 14824 492 L14047 2435 C13612 2378 13174 2350 12736 2350 C12218 2350 11700 2390 11187 2469 L10364 547 C10238 251 9949 73 9646 73 C9543 73 9438 93 9338 137 L6036 1553 C5640 1722 5456 2182 5626 2579 L6449 4501 C5690 5085 5019 5775 4452 6549 L2510 5772 C2414 5734 2316 5716 2219 5716 C1910 5716 1616 5901 1493 6208 L161 9542 C0 9944 194 10398 596 10558 L2537 11335 C2415 12285 2426 13249 2572 14195 L651 15018 C253 15189 71 15649 241 16046 L1655 19347 C1781 19643 2070 19821 2373 19821 C2476 19821 2581 19800 2681 19756 L4603 18933 C5189 19692 5879 20365 6651 20930 L5874 22873 C5714 23273 5909 23728 6310 23888 L9645 25222 C9740 25260 9838 25278 9935 25278 C10245 25278 10538 25092 10660 24786 L11437 22845 C11871 22901 12308 22929 12745 22929 C13264 22929 13784 22889 14299 22810 L15122 24732 C15248 25028 15536 25206 15839 25206 C15943 25206 16047 25185 16148 25142 L19449 23728 C19846 23558 20030 23098 19860 22701 L19037 20780 C19794 20194 20467 19503 21034 18732 L22975 19508 C23070 19546 23168 19564 23265 19564 C23576 19564 23869 19378 23992 19073 L25326 15737 C25486 15337 25290 14882 24890 14722 L22948 13945 C23071 12994 23060 12032 22914 11084 L24835 10261 C25231 10091 25415 9631 25245 9234 L23830 5934 C23703 5637 23414 5459 23111 5459 C23008 5459 22904 5479 22803 5522 L20882 6347 C20297 5588 19607 4915 18835 4348 L19610 2408 C19770 2006 19577 1551 19175 1391 L15841 57 C15745 19 15647 1 15551 1 Z" fill="#FF8001" stroke="none" stroke-width="209.49024193443995" /></g></g><g transform="translate(469.7931758530184 199.0077690288714)  "><g transform="scale(0.004773492028869538 0.004773488882368223)"><path d="M12746 4905 C13701 4905 14672 5083 15613 5460 C19580 7047 21508 11545 19923 15511 C18714 18534 15811 20374 12742 20374 C11786 20374 10814 20196 9873 19819 C5908 18234 3978 13734 5563 9769 C6772 6745 9676 4905 12746 4905 Z M15551 1 C15240 1 14946 187 14824 492 L14047 2435 C13612 2378 13174 2350 12736 2350 C12218 2350 11700 2390 11187 2469 L10364 547 C10238 251 9949 73 9646 73 C9543 73 9438 93 9338 137 L6036 1553 C5640 1722 5456 2182 5626 2579 L6449 4501 C5690 5085 5019 5775 4452 6549 L2510 5772 C2414 5734 2316 5716 2219 5716 C1910 5716 1616 5901 1493 6208 L161 9542 C0 9944 194 10398 596 10558 L2537 11335 C2415 12285 2426 13249 2572 14195 L651 15018 C253 15189 71 15649 241 16046 L1655 19347 C1781 19643 2070 19821 2373 19821 C2476 19821 2581 19800 2681 19756 L4603 18933 C5189 19692 5879 20365 6651 20930 L5874 22873 C5714 23273 5909 23728 6310 23888 L9645 25222 C9740 25260 9838 25278 9935 25278 C10245 25278 10538 25092 10660 24786 L11437 22845 C11871 22901 12308 22929 12745 22929 C13264 22929 13784 22889 14299 22810 L15122 24732 C15248 25028 15536 25206 15839 25206 C15943 25206 16047 25185 16148 25142 L19449 23728 C19846 23558 20030 23098 19860 22701 L19037 20780 C19794 20194 20467 19503 21034 18732 L22975 19508 C23070 19546 23168 19564 23265 19564 C23576 19564 23869 19378 23992 19073 L25326 15737 C25486 15337 25290 14882 24890 14722 L22948 13945 C23071 12994 23060 12032 22914 11084 L24835 10261 C25231 10091 25415 9631 25245 9234 L23830 5934 C23703 5637 23414 5459 23111 5459 C23008 5459 22904 5479 22803 5522 L20882 6347 C20297 5588 19607 4915 18835 4348 L19610 2408 C19770 2006 19577 1551 19175 1391 L15841 57 C15745 19 15647 1 15551 1 Z" fill="#D55800" stroke="none" stroke-width="209.49024193443995" /></g></g><g transform="translate(368.54981627296587 287.57501312335955)  "><g transform="scale(0.004773492028869538 0.004773488882368223)"><path d="M12746 4905 C13701 4905 14672 5083 15613 5460 C19580 7047 21508 11545 19923 15511 C18714 18534 15811 20374 12742 20374 C11786 20374 10814 20196 9873 19819 C5908 18234 3978 13734 5563 9769 C6772 6745 9676 4905 12746 4905 Z M15551 1 C15240 1 14946 187 14824 492 L14047 2435 C13612 2378 13174 2350 12736 2350 C12218 2350 11700 2390 11187 2469 L10364 547 C10238 251 9949 73 9646 73 C9543 73 9438 93 9338 137 L6036 1553 C5640 1722 5456 2182 5626 2579 L6449 4501 C5690 5085 5019 5775 4452 6549 L2510 5772 C2414 5734 2316 5716 2219 5716 C1910 5716 1616 5901 1493 6208 L161 9542 C0 9944 194 10398 596 10558 L2537 11335 C2415 12285 2426 13249 2572 14195 L651 15018 C253 15189 71 15649 241 16046 L1655 19347 C1781 19643 2070 19821 2373 19821 C2476 19821 2581 19800 2681 19756 L4603 18933 C5189 19692 5879 20365 6651 20930 L5874 22873 C5714 23273 5909 23728 6310 23888 L9645 25222 C9740 25260 9838 25278 9935 25278 C10245 25278 10538 25092 10660 24786 L11437 22845 C11871 22901 12308 22929 12745 22929 C13264 22929 13784 22889 14299 22810 L15122 24732 C15248 25028 15536 25206 15839 25206 C15943 25206 16047 25185 16148 25142 L19449 23728 C19846 23558 20030 23098 19860 22701 L19037 20780 C19794 20194 20467 19503 21034 18732 L22975 19508 C23070 19546 23168 19564 23265 19564 C23576 19564 23869 19378 23992 19073 L25326 15737 C25486 15337 25290 14882 24890 14722 L22948 13945 C23071 12994 23060 12032 22914 11084 L24835 10261 C25231 10091 25415 9631 25245 9234 L23830 5934 C23703 5637 23414 5459 23111 5459 C23008 5459 22904 5479 22803 5522 L20882 6347 C20297 5588 19607 4915 18835 4348 L19610 2408 C19770 2006 19577 1551 19175 1391 L15841 57 C15745 19 15647 1 15551 1 Z" fill="#32AAD9" stroke="none" stroke-width="209.49024193443995" /></g></g><g transform="translate(469.7931758530184 376.14215223097113)  "><g transform="scale(0.004773492028869538 0.004773488882368223)"><path d="M12746 4905 C13701 4905 14672 5083 15613 5460 C19580 7047 21508 11545 19923 15511 C18714 18534 15811 20374 12742 20374 C11786 20374 10814 20196 9873 19819 C5908 18234 3978 13734 5563 9769 C6772 6745 9676 4905 12746 4905 Z M15551 1 C15240 1 14946 187 14824 492 L14047 2435 C13612 2378 13174 2350 12736 2350 C12218 2350 11700 2390 11187 2469 L10364 547 C10238 251 9949 73 9646 73 C9543 73 9438 93 9338 137 L6036 1553 C5640 1722 5456 2182 5626 2579 L6449 4501 C5690 5085 5019 5775 4452 6549 L2510 5772 C2414 5734 2316 5716 2219 5716 C1910 5716 1616 5901 1493 6208 L161 9542 C0 9944 194 10398 596 10558 L2537 11335 C2415 12285 2426 13249 2572 14195 L651 15018 C253 15189 71 15649 241 16046 L1655 19347 C1781 19643 2070 19821 2373 19821 C2476 19821 2581 19800 2681 19756 L4603 18933 C5189 19692 5879 20365 6651 20930 L5874 22873 C5714 23273 5909 23728 6310 23888 L9645 25222 C9740 25260 9838 25278 9935 25278 C10245 25278 10538 25092 10660 24786 L11437 22845 C11871 22901 12308 22929 12745 22929 C13264 22929 13784 22889 14299 22810 L15122 24732 C15248 25028 15536 25206 15839 25206 C15943 25206 16047 25185 16148 25142 L19449 23728 C19846 23558 20030 23098 19860 22701 L19037 20780 C19794 20194 20467 19503 21034 18732 L22975 19508 C23070 19546 23168 19564 23265 19564 C23576 19564 23869 19378 23992 19073 L25326 15737 C25486 15337 25290 14882 24890 14722 L22948 13945 C23071 12994 23060 12032 22914 11084 L24835 10261 C25231 10091 25415 9631 25245 9234 L23830 5934 C23703 5637 23414 5459 23111 5459 C23008 5459 22904 5479 22803 5522 L20882 6347 C20297 5588 19607 4915 18835 4348 L19610 2408 C19770 2006 19577 1551 19175 1391 L15841 57 C15745 19 15647 1 15551 1 Z" fill="#1A569C" stroke="none" stroke-width="209.49024193443995" /></g></g><g transform="translate(575.9370078740158 139.10498687664042)  "><rect width="312.06299212598424" height="26.519685039370078" rx="0" fill="none" stroke="none" stroke-width="1.0" stroke-linejoin="round"/><text x="302.46456692913387" y="30.93175853018373" font-family="Fira Sans Extra Condensed" font-size="21.333333333333332" text-anchor="end" fill="#FF8001">Reduce costs</text></g><g transform="translate(623.6850393700787 165.48692913385827)  "><rect width="264.31496062992125" height="38.99212598425197" rx="0" fill="none" stroke="none" stroke-width="1.0" stroke-linejoin="round"/><text x="254.71653543307085" y="25.598425196850393" font-family="Roboto" font-size="16.0" text-anchor="end" fill="#000000">Venus has a beautiful name and is the second one from the Sun</text></g><g transform="translate(72.0 228.86351706036746)  "><rect width="312.06299212598424" height="26.519685039370078" rx="0" fill="none" stroke="none" stroke-width="1.0" stroke-linejoin="round"/><text x="9.598425196850394" y="30.93175853018373" font-family="Fira Sans Extra Condensed" font-size="21.333333333333332" text-anchor="start" fill="#D55800">Improve productivity</text></g><g transform="translate(72.0 255.24577427821524)  "><rect width="264.31496062992125" height="38.99212598425197" rx="0" fill="none" stroke="none" stroke-width="1.0" stroke-linejoin="round"/><text x="9.598425196850394" y="25.598425196850393" font-family="Roboto" font-size="16.0" text-anchor="start" fill="#000000">Mercury is the closest planet to the Sun and the smallest one</text></g><g transform="translate(575.9370078740158 315.3018372703412)  "><rect width="312.06299212598424" height="26.519685039370078" rx="0" fill="none" stroke="none" stroke-width="1.0" stroke-linejoin="round"/><text x="302.46456692913387" y="30.93175853018373" font-family="Fira Sans Extra Condensed" font-size="21.333333333333332" text-anchor="end" fill="#32AAD9">Attract new customers</text></g><g transform="translate(623.6850393700787 341.4532283464567)  "><rect width="264.31496062992125" height="45.85826771653543" rx="0" fill="none" stroke="none" stroke-width="1.0" stroke-linejoin="round"/><text x="254.71653543307085" y="25.598425196850393" font-family="Roboto" font-size="16.0" text-anchor="end" fill="#000000">Despite being red, Mars is a cold place full of iron oxide dust</text></g><g transform="translate(72.0 404.87664041994753)  "><rect width="312.06299212598424" height="26.519685039370078" rx="0" fill="none" stroke="none" stroke-width="1.0" stroke-linejoin="round"/><text x="9.598425196850394" y="30.93175853018373" font-family="Fira Sans Extra Condensed" font-size="21.333333333333332" text-anchor="start" fill="#1A569C">New facilities/Geo expansion</text></g><g transform="translate(72.0 431.395905511811)  "><rect width="264.31496062992125" height="45.85826771653543" rx="0" fill="none" stroke="none" stroke-width="1.0" stroke-linejoin="round"/><text x="9.598425196850394" y="25.598425196850393" font-family="Roboto" font-size="16.0" text-anchor="start" fill="#000000">Jupiter is a gas giant and the biggest planet in the Solar System</text></g><g transform="translate(519.1071916010499 249.61700787401574) scale(0.7041007944787738 0.704099744443584) translate(-352.4750656167979 -219.79002624671915)"><g transform="translate(352.4750656167979 232.07874015748033)  "><g transform="scale(0.0026246719160104987 0.0026246719160104987)"><path d="M566 1 C253 1 0 251 0 564 L0 7664 C0 7978 253 8231 566 8231 L2861 8231 C3174 8231 3427 7978 3427 7664 L3427 564 C3427 251 3174 1 2861 1 Z" fill="#D55800" stroke="none" stroke-width="381.0" /></g></g><g transform="translate(364.43307086614175 225.93963254593177)  "><g transform="scale(0.002624671916010499 0.0026246719160104987)"><path d="M563 0 C253 0 0 250 0 563 L0 10003 C0 10317 253 10570 563 10570 L2822 10570 C3135 10570 3388 10317 3388 10003 L3388 563 C3388 250 3135 0 2822 0 Z" fill="#D55800" stroke="none" stroke-width="380.99999999999994" /></g></g><g transform="translate(376.28871391076115 219.79002624671915)  "><g transform="scale(0.0026246719160104987 0.002624671916010499)"><path d="M563 0 C253 0 0 253 0 566 L0 12346 C0 12660 253 12913 563 12913 L2822 12913 C3135 12913 3388 12660 3388 12346 L3388 566 C3388 253 3135 0 2822 0 Z" fill="#D55800" stroke="none" stroke-width="380.99999999999994" /></g></g></g><g transform="translate(411.56955380577426 152.96482939632546) scale(0.7041000363202408 0.7041000363202408) translate(-156.71128608923885 -275.1469816272966)"><g transform="translate(176.07611548556432 275.1469816272966)  "><g transform="scale(0.0026246719160104987 0.0026246719160104987)"><path d="M2259 0 C1009 0 0 1048 0 2298 C0 3544 1009 4553 2259 4553 C3505 4553 4517 3544 4517 2298 C4517 1048 3505 0 2259 0 Z" fill="#FF8001" stroke="none" stroke-width="381.0" /></g></g><g transform="translate(156.71128608923885 287.1049868766404)  "><g transform="scale(0.0026246719160104987 0.0026246719160104987)"><path d="M5120 4517 C5623 4517 5873 5122 5517 5481 C5403 5595 5262 5647 5123 5647 C4833 5647 4554 5421 4554 5080 C4554 4767 4807 4517 5120 4517 Z M3991 0 C3677 0 3425 250 3425 563 L3425 2572 C2455 3367 1750 4439 1401 5646 L564 5646 C251 5646 1 5896 1 6209 L1 9597 C1 9910 251 10163 564 10163 L1850 10163 C2446 11322 3391 12265 4554 12858 L4554 14153 C4554 14463 4807 14716 5120 14716 L7378 14716 C7688 14716 7941 14463 7941 14153 L7941 13551 L11329 13551 L11329 14153 C11329 14463 11582 14716 11895 14716 L14154 14716 C14464 14716 14717 14463 14717 14153 L14717 12864 C16647 11880 17945 9958 18107 7808 C18800 7582 19270 6938 19273 6209 L19273 5080 C19273 4767 19020 4517 18707 4517 C18393 4517 18144 4767 18144 5080 L18144 6209 C18141 6300 18116 6387 18074 6465 C17647 3454 15021 1129 11895 1129 L7378 1129 C7020 1129 6665 1166 6315 1232 C5788 464 4921 3 3991 0 Z" fill="#FF8001" stroke="none" stroke-width="381.0" /></g></g></g><g transform="translate(510.52934383202097 417.1659842519685) scale(1.1570014358044283 1.1569990563070147) translate(6602.703412073491 -393.43044619422574)"><g transform="translate(-6602.703412073491 393.43044619422574)  "><g transform="scale(0.0026246719160104987 0.0026246719160104987)"><path d="M6591 0 C4966 0 3342 616 2112 1846 C663 3296 1 5438 379 7454 C442 7675 568 7832 789 7832 L852 7832 C1104 7801 1198 7549 1167 7360 C852 5596 1419 3737 2710 2477 C3719 1437 5136 870 6617 870 C7940 870 9200 1342 10177 2193 L9610 2792 C9484 2918 9452 3075 9484 3170 C9515 3327 9641 3422 9799 3453 L12036 3926 L12130 3926 C12225 3926 12319 3894 12382 3800 C12508 3674 12540 3579 12508 3422 L12036 1153 C12004 1027 11878 901 11752 838 C11715 831 11678 827 11642 827 C11526 827 11422 868 11374 964 L10776 1563 C9583 521 8087 0 6591 0 Z" fill="#1A569C" stroke="none" stroke-width="381.0" /></g></g><g transform="translate(-6601.047244094489 406.2020997375328)  "><g transform="scale(0.0026246719160104987 0.0026246719160104987)"><path d="M11779 0 C11759 0 11739 2 11720 5 C11499 36 11373 288 11405 477 C11720 2242 11184 4101 9861 5361 C8853 6400 7435 6967 5986 6967 C4631 6967 3371 6495 2394 5644 L2993 5046 C3088 4920 3151 4762 3088 4668 C3056 4510 2962 4416 2772 4384 L536 3912 C498 3904 465 3900 433 3900 C332 3900 254 3941 158 4038 C32 4132 0 4258 32 4416 L504 6652 C536 6810 662 6936 788 6967 L882 6967 C1008 6967 1103 6936 1166 6873 L1764 6274 C2930 7346 4442 7850 5923 7850 C7561 7850 9168 7220 10428 5991 C11909 4510 12602 2368 12192 320 C12164 122 11958 0 11779 0 Z" fill="#1A569C" stroke="none" stroke-width="381.0" /></g></g><g transform="translate(-6588.0656167979005 402.5748031496063)  "><g transform="scale(0.0026246719160104987 0.0026246719160104987)"><path d="M630 1 C410 221 158 599 0 1072 L630 1072 L630 1 Z" fill="#1A569C" stroke="none" stroke-width="381.0" /></g></g><g transform="translate(-6584.262467191601 414.7296587926509)  "><g transform="scale(0.0026246719160104987 0.0026246719160104987)"><path d="M1 1 L1 1041 C253 852 473 473 631 1 Z" fill="#1A569C" stroke="none" stroke-width="381.0" /></g></g><g transform="translate(-6588.0656167979005 414.7296587926509)  "><g transform="scale(0.0026246719160104987 0.0026246719160104987)"><path d="M0 1 C158 473 410 852 630 1041 L630 1 Z" fill="#1A569C" stroke="none" stroke-width="381.0" /></g></g><g transform="translate(-6595.509186351706 407.4540682414698)  "><g transform="scale(0.0026246719160104987 0.0026246719160104987)"><path d="M127 0 C32 316 1 631 1 977 C1 1324 32 1670 127 1922 L1765 1922 C1734 1607 1702 1292 1702 977 C1702 662 1734 316 1765 0 Z" fill="#1A569C" stroke="none" stroke-width="381.0" /></g></g><g transform="translate(-6584.262467191601 402.49343832021)  "><g transform="scale(0.0026246719160104987 0.0026246719160104987)"><path d="M1 0 L1 1071 L631 1071 C505 599 253 189 1 0 Z" fill="#1A569C" stroke="none" stroke-width="381.0" /></g></g><g transform="translate(-6588.811023622047 407.4540682414698)  "><g transform="scale(0.002624671916010499 0.0026246719160104987)"><path d="M95 0 C64 316 1 631 1 977 C1 1324 64 1670 95 1922 L914 1922 L914 0 Z" fill="#1A569C" stroke="none" stroke-width="380.99999999999994" /></g></g><g transform="translate(-6584.262467191601 399.92913385826773)  "><g transform="scale(0.0026246719160104987 0.0026246719160104987)"><path d="M1 1 L1 32 C631 253 1198 1009 1481 2048 L2994 2048 C2426 946 1324 158 1 1 Z" fill="#1A569C" stroke="none" stroke-width="381.0" /></g></g><g transform="translate(-6584.343832020997 414.7296587926509)  "><g transform="scale(0.0026246719160104987 0.0026246719160104987)"><path d="M1512 1 C1229 1009 662 1765 0 1986 L0 2049 L32 2049 C1355 1891 2457 1104 3025 1 Z" fill="#1A569C" stroke="none" stroke-width="381.0" /></g></g><g transform="translate(-6594.351706036746 414.6482939632546)  "><g transform="scale(0.0026246719160104987 0.0026246719160104987)"><path d="M1 0 C600 1166 1702 1954 3025 2080 L3025 2017 C2364 1796 1860 1040 1545 0 Z" fill="#1A569C" stroke="none" stroke-width="381.0" /></g></g><g transform="translate(-6579.879265091863 407.4540682414698)  "><g transform="scale(0.0026246719160104987 0.0026246719160104987)"><path d="M0 0 C32 316 63 631 63 977 C63 1324 32 1670 0 1922 L1639 1922 C1733 1670 1765 1292 1765 977 C1765 662 1733 316 1639 0 Z" fill="#1A569C" stroke="none" stroke-width="381.0" /></g></g><g transform="translate(-6594.2677165354335 400.01312335958005)  "><g transform="scale(0.0026246719160104987 0.0026246719160104987)"><path d="M2993 0 C1702 158 599 945 0 2048 L1544 2048 C1828 1008 2363 284 3025 32 L3025 0 Z" fill="#1A569C" stroke="none" stroke-width="381.0" /></g></g><g transform="translate(-6584.262467191601 407.4540682414698)  "><g transform="scale(0.0026246719160104987 0.0026246719160104987)"><path d="M1 0 L1 1922 L851 1922 C883 1607 914 1292 914 977 C914 662 883 316 851 0 Z" fill="#1A569C" stroke="none" stroke-width="381.0" /></g></g></g><g transform="translate(410.0511286089239 328.6748556430446) scale(1.156998978710032 1.1569998420969525) translate(6685.55905511811 -352.79527559055117)"><g transform="translate(-6666.372703412074 359.41207349081367)  "><g transform="scale(0.0026246719160104987 0.0026246719160104987)"><path d="M819 0 C378 0 0 378 0 819 C0 1260 378 1638 819 1638 C1260 1638 1638 1260 1638 819 C1638 378 1260 0 819 0 Z" fill="#32AAD9" stroke="none" stroke-width="381.0" /></g></g><g transform="translate(-6668.44094488189 365.9448818897638)  "><g transform="scale(0.0026246719160104987 0.0026246719160104987)"><path d="M1607 0 C820 0 190 504 1 1197 L3183 1197 C3025 504 2395 0 1607 0 Z" fill="#32AAD9" stroke="none" stroke-width="381.0" /></g></g><g transform="translate(-6679.107611548557 352.79527559055117)  "><g transform="scale(0.0026246719160104987 0.0026246719160104987)"><path d="M5703 1639 C6616 1639 7373 2395 7373 3309 C7373 3750 7215 4128 6900 4443 C7625 4884 8192 5672 8192 6617 C8160 6900 8003 7058 7751 7058 L3623 7058 C3371 7058 3214 6837 3214 6617 C3214 5672 3749 4884 4537 4443 C4254 4128 4065 3718 4065 3309 C4065 2395 4789 1639 5703 1639 Z M5703 1 C3182 1 1135 2049 1135 4569 C1135 5609 1481 6648 2206 7467 L1607 8066 L756 7184 C678 7121 567 7089 457 7089 C347 7089 237 7121 158 7184 C0 7341 0 7625 158 7783 L1324 8980 L2521 10145 C2600 10224 2710 10264 2820 10264 C2930 10264 3041 10224 3119 10145 C3277 9988 3277 9704 3119 9547 L2237 8696 L2836 8098 C3655 8759 4695 9169 5734 9169 C8255 9169 10271 7121 10271 4632 C10239 2049 8223 1 5703 1 Z" fill="#32AAD9" stroke="none" stroke-width="381.0" /></g></g><g transform="translate(-6685.55905511811 375.4540682414698)  "><g transform="scale(0.0026246719160104987 0.0026246719160104987)"><path d="M2332 0 L159 2142 C1 2300 1 2584 159 2741 L1356 3938 C1434 4001 1545 4033 1655 4033 C1765 4033 1876 4001 1954 3938 L4097 1764 L2332 0 Z" fill="#32AAD9" stroke="none" stroke-width="381.0" /></g></g></g></svg>