<svg xmlns="http://www.w3.org/2000/svg" width="960" height="540" viewBox="0 0 960 540"><rect width="960" height="540" fill="#FFFFFF"/><rect x="52" y="38" width="858" height="58" rx="0" fill="none" stroke="none" stroke-width="1"/><path d="M52 500 L908 500" stroke="#DDDDDD" stroke-width="0.65" fill="none"/><rect x="52" y="511" width="290" height="18" rx="0" fill="none" stroke="none" stroke-width="1"/><rect x="845" y="511" width="63" height="18" rx="0" fill="none" stroke="none" stroke-width="1"/><rect x="67.6875" y="133.5" width="27.625" height="26.0" rx="0" fill="none" stroke="#303030" stroke-width="1.625"/><path d="M67.6875 141.625 L95.3125 141.625" fill="none" stroke="#303030" stroke-width="1.625" stroke-linejoin="round" stroke-linecap="round"/><path d="M77.4375 133.5 L77.4375 141.625 L85.5625 141.625 L85.5625 133.5" fill="none" stroke="#303030" stroke-width="1.625" stroke-linejoin="round" stroke-linecap="round"/><path d="M73.375 153.8125 L80.6875 153.8125" fill="none" stroke="#303030" stroke-width="1.625" stroke-linejoin="round" stroke-linecap="round"/><rect x="129" y="120" width="360" height="47" rx="0" fill="none" stroke="none" stroke-width="1"/><path d="M522 146 L560 146" stroke="#888888" stroke-width="1.5" fill="none"/><polygon points="560,146 554.7345046286578,148.87655323162522 554.7345046286578,143.12344676837478" fill="#888888"/><rect x="588" y="121" width="320" height="66" rx="0" fill="none" stroke="none" stroke-width="1"/><path d="M129 193 L908 193" stroke="#DDDDDD" stroke-width="1" fill="none"/><ellipse cx="81.5" cy="231.125" rx="13.0" ry="13.0" fill="none" stroke="#303030" stroke-width="1.625"/><path d="M81.5 222.1875 L81.5 231.125 L88.0 234.375" fill="none" stroke="#303030" stroke-width="1.625" stroke-linejoin="round" stroke-linecap="round"/><path d="M77.4375 213.25 L85.5625 213.25" fill="none" stroke="#303030" stroke-width="1.625" stroke-linejoin="round" stroke-linecap="round"/><path d="M81.5 213.25 L81.5 218.125" fill="none" stroke="#303030" stroke-width="1.625" stroke-linejoin="round" stroke-linecap="round"/><rect x="129" y="203" width="360" height="47" rx="0" fill="none" stroke="none" stroke-width="1"/><path d="M522 229 L560 229" stroke="#888888" stroke-width="1.5" fill="none"/><polygon points="560,229 554.7345046286578,231.87655323162522 554.7345046286578,226.12344676837478" fill="#888888"/><rect x="588" y="204" width="320" height="66" rx="0" fill="none" stroke="none" stroke-width="1"/><path d="M129 276 L908 276" stroke="#DDDDDD" stroke-width="1" fill="none"/><path d="M81.5 328.75 L70.125 313.3125 L68.5 306.8125 L71.75 300.3125 L78.25 297.0625 L84.75 297.0625 L91.25 300.3125 L94.5 306.8125 L92.875 313.3125 Z" fill="none" stroke="#303030" stroke-width="1.625" stroke-linejoin="round" stroke-linecap="round"/><ellipse cx="81.5" cy="308.4375" rx="4.875" ry="4.875" fill="none" stroke="#303030" stroke-width="1.625"/><rect x="129" y="286" width="360" height="47" rx="0" fill="none" stroke="none" stroke-width="1"/><path d="M522 312 L560 312" stroke="#888888" stroke-width="1.5" fill="none"/><polygon points="560,312 554.7345046286578,314.8765532316252 554.7345046286578,309.1234467683748" fill="#888888"/><rect x="588" y="287" width="320" height="66" rx="0" fill="none" stroke="none" stroke-width="1"/><path d="M129 359 L908 359" stroke="#DDDDDD" stroke-width="1" fill="none"/><rect x="70.125" y="380.0625" width="23.5625" height="30.875" rx="0" fill="none" stroke="#303030" stroke-width="1.625"/><path d="M75.0 387.375 L88.0 387.375" fill="none" stroke="#303030" stroke-width="1.625" stroke-linejoin="round" stroke-linecap="round"/><path d="M75.0 394.6875 L88.0 394.6875" fill="none" stroke="#303030" stroke-width="1.625" stroke-linejoin="round" stroke-linecap="round"/><path d="M75.0 402.0 L84.75 402.0" fill="none" stroke="#303030" stroke-width="1.625" stroke-linejoin="round" stroke-linecap="round"/><rect x="129" y="369" width="360" height="47" rx="0" fill="none" stroke="none" stroke-width="1"/><path d="M522 395 L560 395" stroke="#888888" stroke-width="1.5" fill="none"/><polygon points="560,395 554.7345046286578,397.8765532316252 554.7345046286578,392.1234467683748" fill="#888888"/><rect x="588" y="370" width="320" height="66" rx="0" fill="none" stroke="none" stroke-width="1"/><rect x="52" y="461" width="856" height="32" rx="0" fill="none" stroke="none" stroke-width="1"/></svg>