<svg xmlns="http://www.w3.org/2000/svg" width="38.91286089238845" height="38.639580052493436" viewBox="0 0 38.91286089238845 38.639580052493436"><rect width="100%" height="100%" fill="white"/><g transform="translate(0.0 0.0) scale(1.1570001560792882 1.1570009430996542) translate(6640.490813648294 -393.0787401574803)"><g transform="translate(-6627.427821522309 393.0787401574803)  "><g transform="scale(0.0026246719160104987 0.0026246719160104987)"><path d="M6020 0 C5921 0 5820 37 5735 122 L4097 1760 C4034 1854 3971 1917 3971 2012 L3782 3304 L1734 5351 C1576 5288 1387 5225 1230 5225 C537 5225 1 5793 1 6486 C1 7210 537 7714 1230 7714 C1891 7714 2458 7179 2458 6486 C2458 6297 2395 6139 2332 5982 L4380 3934 L5672 3745 C5735 3745 5829 3713 5924 3619 L7562 1980 C7837 1706 7609 1254 7251 1254 C7240 1254 7228 1255 7216 1256 L6302 1382 L6428 468 C6472 203 6253 0 6020 0 Z" fill="#FFC64E" stroke="none" stroke-width="381.0" /></g></g><g transform="translate(-6634.123359580052 400.4251968503937)  "><g transform="scale(0.0026246719160104987 0.0026246719160104987)"><path d="M3718 1 C1670 1 0 1670 0 3750 C0 5797 1638 7436 3718 7436 C5765 7436 7467 5797 7467 3750 C7467 3151 7341 2647 7120 2143 L5828 3435 C5828 3498 5860 3624 5860 3718 C5860 4852 4915 5797 3781 5797 C2615 5797 1670 4852 1670 3718 C1733 2552 2615 1607 3781 1607 C3875 1607 3970 1607 4033 1670 L5356 347 C4883 127 4316 1 3718 1 Z" fill="#FFC64E" stroke="none" stroke-width="381.0" /></g></g><g transform="translate(-6640.490813648294 393.81102362204723)  "><g transform="scale(0.0026246719160104987 0.0026246719160104987)"><path d="M6270 0 C2773 0 0 2804 0 6238 C0 9641 2804 12445 6238 12445 C9672 12445 12445 9641 12445 6238 C12445 5325 12256 4411 11878 3592 L11563 3907 C11342 4096 11121 4222 10838 4253 L10397 4348 C10680 4915 10806 5545 10806 6238 C10806 8759 8759 10743 6270 10743 C3781 10743 1733 8696 1733 6238 C1733 3718 3781 1670 6270 1670 C6931 1670 7561 1796 8160 2048 L8254 1607 C8286 1355 8412 1103 8601 914 L8916 599 C8097 189 7215 0 6270 0 Z" fill="#FFC64E" stroke="none" stroke-width="381.0" /></g></g></g></svg>