<svg xmlns="http://www.w3.org/2000/svg" width="36.75370078740158" height="36.75370078740158" viewBox="0 0 36.75370078740158 36.75370078740158"><rect width="100%" height="100%" fill="white"/><g transform="translate(0.0 0.0) scale(1.182000506457331 1.182000506457331) translate(-367.1706036745407 -338.82152230971127)"><g transform="translate(378.994750656168 350.6456692913386)  "><g transform="scale(0.0026246719160104987 0.0026246719160104987)"><path d="M1387 1 C631 1 1 631 1 1355 C1 2112 631 2742 1387 2742 C2143 2742 2773 2112 2773 1355 C2773 631 2143 1 1387 1 Z" fill="#FFFFFF" stroke="none" stroke-width="381.0" /></g></g><g transform="translate(370.7270341207349 338.82152230971127)  "><g transform="scale(0.0026246719160104987 0.0026246719160104987)"><path d="M1733 1 C788 1 0 788 0 1733 C0 2678 788 3466 1733 3466 C2741 3466 3466 2678 3466 1733 C3466 788 2678 1 1733 1 Z" fill="#FFFFFF" stroke="none" stroke-width="381.0" /></g></g><g transform="translate(385.3622047244094 338.82152230971127)  "><g transform="scale(0.0026246719160104987 0.0026246719160104987)"><path d="M1733 1 C788 1 1 788 1 1733 C1 2678 788 3466 1733 3466 C2679 3466 3466 2678 3466 1733 C3466 788 2679 1 1733 1 Z" fill="#FFFFFF" stroke="none" stroke-width="381.0" /></g></g><g transform="translate(380.31758530183725 359.246719160105)  "><g transform="scale(0.0026246719160104987 0.0026246719160104987)"><path d="M1 0 L851 1008 L1671 0 L1671 0 C1450 126 1167 158 851 158 C568 158 284 95 1 0 Z" fill="#FFFFFF" stroke="none" stroke-width="381.0" /></g></g><g transform="translate(374.4461942257218 358.6666666666667)  "><g transform="scale(0.0026246719160104987 0.0026246719160104987)"><path d="M1261 1 C474 599 1 1513 1 2490 L1 3907 C1 4096 158 4254 379 4254 L2805 4254 L2805 1891 L1261 1 Z" fill="#FFFFFF" stroke="none" stroke-width="381.0" /></g></g><g transform="translate(383.54330708661416 358.750656167979)  "><g transform="scale(0.0026246719160104987 0.0026246719160104987)"><path d="M1544 0 L1 1890 L1 4253 L2458 4253 C2647 4253 2804 4096 2804 3907 L2804 2489 C2773 1481 2300 567 1544 0 Z" fill="#FFFFFF" stroke="none" stroke-width="381.0" /></g></g><g transform="translate(383.79265091863516 347.58792650918633)  "><g transform="scale(0.0026246719160104987 0.0026246719160104987)"><path d="M3686 1512 C3907 1512 4064 1670 4064 1859 C4064 2048 3907 2205 3686 2205 L2993 2205 C2804 2205 2646 2048 2646 1859 C2646 1670 2804 1512 2993 1512 Z M4127 0 C3686 536 3056 851 2331 851 C1607 851 977 504 536 63 C347 221 158 378 0 567 C945 756 1638 1575 1638 2615 C1638 2930 1575 3214 1449 3466 C1859 3718 2205 4001 2520 4348 L5167 4348 C5356 4348 5513 4190 5513 4001 L5513 2615 C5482 1512 4915 567 4127 0 Z" fill="#FFFFFF" stroke="none" stroke-width="381.0" /></g></g><g transform="translate(367.1706036745407 347.503937007874)  "><g transform="scale(0.0026246719160104987 0.0026246719160104987)"><path d="M2426 1544 C2615 1544 2773 1702 2773 1891 C2773 2080 2615 2237 2426 2237 L1733 2237 C1513 2237 1355 2080 1355 1891 C1355 1702 1513 1544 1733 1544 Z M1324 1 C536 568 1 1513 1 2552 L1 3939 C1 4191 95 4348 316 4348 L2930 4348 C3214 3970 3561 3655 4002 3466 C3876 3183 3813 2930 3813 2615 C3813 1607 4506 757 5451 568 C5293 347 5104 190 4915 32 C4474 505 3844 820 3151 820 C2426 820 1796 505 1324 1 Z" fill="#FFFFFF" stroke="none" stroke-width="381.0" /></g></g></g></svg>