<svg xmlns="http://www.w3.org/2000/svg" width="960" height="540" viewBox="0 0 960 540"><rect width="960" height="540" fill="#FFFFFF"/><path d="M52 500 L908 500" stroke="#D8E2E8" stroke-width="0.65" fill="none"/><rect x="52" y="511" width="290" height="18" rx="0" fill="none" stroke="none" stroke-width="1"/><rect x="845" y="511" width="63" height="18" rx="0" fill="none" stroke="none" stroke-width="1"/><rect x="52" y="48" width="856" height="75" rx="0" fill="none" stroke="none" stroke-width="1"/><rect x="54" y="207" width="440" height="70" rx="0" fill="none" stroke="none" stroke-width="1"/><rect x="54" y="347" width="440" height="66" rx="0" fill="none" stroke="none" stroke-width="1"/><rect x="544" y="145" width="140" height="71" rx="7.1000000000000005" fill="#F3F6F8" stroke="none" stroke-width="1"/><rect x="563.375" y="170.0" width="21.25" height="20.0" rx="0" fill="none" stroke="#007D8B" stroke-width="1.25"/><path d="M563.375 176.25 L584.625 176.25" fill="none" stroke="#007D8B" stroke-width="1.25" stroke-linejoin="round" stroke-linecap="round"/><path d="M570.875 170.0 L570.875 176.25 L577.125 176.25 L577.125 170.0" fill="none" stroke="#007D8B" stroke-width="1.25" stroke-linejoin="round" stroke-linecap="round"/><path d="M567.75 185.625 L573.375 185.625" fill="none" stroke="#007D8B" stroke-width="1.25" stroke-linejoin="round" stroke-linecap="round"/><rect x="600" y="163" width="76" height="45" rx="0" fill="none" stroke="none" stroke-width="1"/><path d="M689 180 L750 180" stroke="#869FB2" stroke-width="2" fill="none"/><rect x="544" y="250" width="140" height="71" rx="7.1000000000000005" fill="#F3F6F8" stroke="none" stroke-width="1"/><ellipse cx="574.0" cy="285.0" rx="11.875" ry="11.875" fill="none" stroke="#007D8B" stroke-width="1.25"/><ellipse cx="574.0" cy="285.0" rx="6.875" ry="6.875" fill="none" stroke="#007D8B" stroke-width="1.25"/><ellipse cx="574.0" cy="285.0" rx="1.875" ry="1.875" fill="none" stroke="#007D8B" stroke-width="1.25"/><path d="M574.0 285.0 L585.25 273.75" fill="none" stroke="#007D8B" stroke-width="1.25" stroke-linejoin="round" stroke-linecap="round"/><path d="M580.875 273.75 L585.25 273.75 L585.25 278.125" fill="none" stroke="#007D8B" stroke-width="1.25" stroke-linejoin="round" stroke-linecap="round"/><rect x="600" y="268" width="76" height="45" rx="0" fill="none" stroke="none" stroke-width="1"/><path d="M689 285 L750 285" stroke="#869FB2" stroke-width="2" fill="none"/><rect x="544" y="355" width="140" height="71" rx="7.1000000000000005" fill="#F3F6F8" stroke="none" stroke-width="1"/><path d="M574.0 378.125 L584.0 381.875 L582.75 393.125 L579.0 398.75 L574.0 402.5 L569.0 398.75 L565.25 393.125 L564.0 381.875 Z" fill="none" stroke="#007D8B" stroke-width="1.25" stroke-linejoin="round" stroke-linecap="round"/><path d="M569.0 390.0 L572.75 393.75 L579.625 386.25" fill="none" stroke="#007D8B" stroke-width="1.25" stroke-linejoin="round" stroke-linecap="round"/><rect x="600" y="373" width="76" height="45" rx="0" fill="none" stroke="none" stroke-width="1"/><path d="M689 390 L750 390" stroke="#869FB2" stroke-width="2" fill="none"/><path d="M750 180 L750 390" stroke="#869FB2" stroke-width="2" fill="none"/><path d="M750 285 L795 285" stroke="#007D8B" stroke-width="2" fill="none"/><polygon points="795,285 789.7345046286578,287.8765532316252 789.7345046286578,282.1234467683748" fill="#007D8B"/><ellipse cx="848.0" cy="288.0" rx="46.0" ry="46.0" fill="#F3F6F8" stroke="none" stroke-width="1"/><ellipse cx="848.5" cy="285.5" rx="17.020833333333336" ry="17.020833333333336" fill="none" stroke="#007D8B" stroke-width="1.7916666666666667"/><path d="M839.5416666666666 285.5 L845.8125 291.7708333333333 L857.4583333333334 279.2291666666667" fill="none" stroke="#007D8B" stroke-width="1.7916666666666667" stroke-linejoin="round" stroke-linecap="round"/><rect x="758" y="366" width="190" height="49" rx="0" fill="none" stroke="none" stroke-width="1"/></svg>