<svg xmlns="http://www.w3.org/2000/svg" width="960" height="540" viewBox="0 0 960 540"><rect width="960" height="540" fill="#FFFFFF"/><rect x="52" y="38" width="858" height="58" rx="0" fill="none" stroke="none" stroke-width="1"/><path d="M52 500 L908 500" stroke="#D8E2E8" stroke-width="0.65" fill="none"/><rect x="52" y="511" width="290" height="18" rx="0" fill="none" stroke="none" stroke-width="1"/><rect x="845" y="511" width="63" height="18" rx="0" fill="none" stroke="none" stroke-width="1"/><rect x="52" y="116" width="395" height="52" rx="5.2" fill="#F3F6F8" stroke="none" stroke-width="1"/><rect x="72" y="127" width="355" height="39" rx="0" fill="none" stroke="none" stroke-width="1"/><rect x="510" y="116" width="398" height="52" rx="5.2" fill="#435D74" stroke="none" stroke-width="1"/><rect x="530" y="127" width="355" height="39" rx="0" fill="none" stroke="none" stroke-width="1"/><rect x="70.10416666666667" y="205.83333333333334" width="24.791666666666664" height="23.333333333333332" rx="0" fill="none" stroke="#007D8B" stroke-width="1.4583333333333333"/><path d="M70.10416666666667 213.125 L94.89583333333333 213.125" fill="none" stroke="#007D8B" stroke-width="1.4583333333333333" stroke-linejoin="round" stroke-linecap="round"/><path d="M78.85416666666667 205.83333333333334 L78.85416666666667 213.125 L86.14583333333333 213.125 L86.14583333333333 205.83333333333334" fill="none" stroke="#007D8B" stroke-width="1.4583333333333333" stroke-linejoin="round" stroke-linecap="round"/><path d="M75.20833333333333 224.0625 L81.77083333333333 224.0625" fill="none" stroke="#007D8B" stroke-width="1.4583333333333333" stroke-linejoin="round" stroke-linecap="round"/><rect x="120" y="199" width="316" height="62" rx="0" fill="none" stroke="none" stroke-width="1"/><path d="M456 222 L496 222" stroke="#869FB2" stroke-width="1.5" fill="none"/><polygon points="496,222 490.73450462865776,224.87655323162522 490.73450462865776,219.12344676837478" fill="#869FB2"/><rect x="531" y="199" width="355" height="62" rx="0" fill="none" stroke="none" stroke-width="1"/><rect x="69.375" y="279.375" width="8.75" height="8.75" rx="0" fill="none" stroke="#007D8B" stroke-width="1.4583333333333333"/><rect x="86.875" y="279.375" width="8.75" height="8.75" rx="0" fill="none" stroke="#007D8B" stroke-width="1.4583333333333333"/><rect x="78.125" y="296.875" width="8.75" height="8.75" rx="0" fill="none" stroke="#007D8B" stroke-width="1.4583333333333333"/><path d="M73.75 288.125 L73.75 292.5 L91.25 292.5 L91.25 288.125" fill="none" stroke="#007D8B" stroke-width="1.4583333333333333" stroke-linejoin="round" stroke-linecap="round"/><path d="M82.5 292.5 L82.5 296.875" fill="none" stroke="#007D8B" stroke-width="1.4583333333333333" stroke-linejoin="round" stroke-linecap="round"/><rect x="120" y="274" width="316" height="62" rx="0" fill="none" stroke="none" stroke-width="1"/><path d="M456 297 L496 297" stroke="#869FB2" stroke-width="1.5" fill="none"/><polygon points="496,297 490.73450462865776,299.8765532316252 490.73450462865776,294.1234467683748" fill="#869FB2"/><rect x="531" y="274" width="355" height="62" rx="0" fill="none" stroke="none" stroke-width="1"/><ellipse cx="82.5" cy="358.75" rx="5.104166666666666" ry="5.104166666666666" fill="none" stroke="#007D8B" stroke-width="1.4583333333333333"/><path d="M70.83333333333333 380.625 L72.29166666666667 371.875 L77.39583333333333 368.2291666666667 L87.60416666666666 368.2291666666667 L92.70833333333333 371.875 L94.16666666666666 380.625" fill="none" stroke="#007D8B" stroke-width="1.4583333333333333" stroke-linejoin="round" stroke-linecap="round"/><path d="M75.20833333333333 380.625 L89.79166666666666 380.625" fill="none" stroke="#007D8B" stroke-width="1.4583333333333333" stroke-linejoin="round" stroke-linecap="round"/><rect x="120" y="349" width="316" height="62" rx="0" fill="none" stroke="none" stroke-width="1"/><path d="M456 372 L496 372" stroke="#869FB2" stroke-width="1.5" fill="none"/><polygon points="496,372 490.73450462865776,374.8765532316252 490.73450462865776,369.1234467683748" fill="#869FB2"/><rect x="531" y="349" width="355" height="62" rx="0" fill="none" stroke="none" stroke-width="1"/><rect x="52" y="443" width="856" height="42" rx="4.2" fill="#F3F6F8" stroke="none" stroke-width="1"/><rect x="70" y="451" width="820" height="31" rx="0" fill="none" stroke="none" stroke-width="1"/></svg>